<?xml version="1.0" encoding="UTF-8" standalone="no"?>
<!-- Created with Inkscape (http://www.inkscape.org/) -->

<svg
   width="61.712708mm"
   height="61.585979mm"
   viewBox="0 0 61.712708 61.585979"
   version="1.1"
   id="svg3656"
   inkscape:version="1.2.1 (9c6d41e410, 2022-07-14)"
   sodipodi:docname="lienzo-iconos-web.svg"
   xml:space="preserve"
   xmlns:inkscape="http://www.inkscape.org/namespaces/inkscape"
   xmlns:sodipodi="http://sodipodi.sourceforge.net/DTD/sodipodi-0.dtd"
   xmlns="http://www.w3.org/2000/svg"
   xmlns:svg="http://www.w3.org/2000/svg"><sodipodi:namedview
     id="namedview3658"
     pagecolor="#ffffff"
     bordercolor="#000000"
     borderopacity="0.25"
     inkscape:showpageshadow="2"
     inkscape:pageopacity="0.0"
     inkscape:pagecheckerboard="0"
     inkscape:deskcolor="#d1d1d1"
     inkscape:document-units="mm"
     showgrid="false"
     inkscape:zoom="1.5376122"
     inkscape:cx="361.27444"
     inkscape:cy="250.38823"
     inkscape:window-width="1920"
     inkscape:window-height="1017"
     inkscape:window-x="-8"
     inkscape:window-y="-8"
     inkscape:window-maximized="1"
     inkscape:current-layer="layer1"
     showguides="false" /><defs
     id="defs3653"><inkscape:path-effect
       effect="spiro"
       id="path-effect14587"
       is_visible="true"
       lpeversion="1" /><inkscape:path-effect
       effect="spiro"
       id="path-effect14579"
       is_visible="true"
       lpeversion="1" /><inkscape:path-effect
       effect="spiro"
       id="path-effect14571"
       is_visible="true"
       lpeversion="1" /><inkscape:path-effect
       effect="bspline"
       id="path-effect12377"
       is_visible="true"
       lpeversion="1"
       weight="33.333333"
       steps="2"
       helper_size="0"
       apply_no_weight="true"
       apply_with_weight="true"
       only_selected="false" /></defs><path
     style="opacity:1;fill:none;fill-opacity:1;stroke:#1d2e49;stroke-width:2.5;stroke-linecap:round;stroke-dasharray:none;stroke-opacity:1;stop-color:#000000"
     d="M 1.5508926,24.722487 C 2.3287372,30.069484 4.6274775,37.56172 7.8392987,43.96415 11.05112,50.36658 15.175234,55.679119 20.11088,58.334763 c 4.935646,2.655643 10.682396,2.655643 16.158216,0.135477 5.475819,-2.520165 10.68166,-7.560265 14.873628,-11.136201 4.191968,-3.575936 7.369589,-5.687359 8.654086,-9.773308 1.284496,-4.085949 0.676016,-10.147702 -2.230581,-13.996434 -2.906597,-3.848733 -8.112435,-5.483357 -12.000774,-4.938657 -3.888339,0.544701 -6.457463,3.269078 -7.234754,6.465379 -0.777291,3.196301 0.236849,6.862919 -1.31767,7.986246 -1.554518,1.123327 -5.678644,-0.295645 -8.282487,1.276815 -2.603844,1.572459 -3.685585,6.135819 -6.287903,6.101922 -2.602318,-0.0339 -6.726431,-4.665357 -8.687743,-8.309388 -1.961312,-3.644032 -1.758475,-6.300355 -0.13524,-7.799422 1.623236,-1.499068 4.665654,-1.839617 5.848426,-3.541636 1.182772,-1.70202 0.506695,-4.766979 -1.385837,-7.219282 C 16.189715,11.133972 13.079707,9.295008 10.239467,9.2945041 7.3992262,9.2940003 4.8301042,11.132967 3.1734244,13.653666 1.5167445,16.174364 0.77304806,19.37549 1.5508926,24.722487 Z"
     id="path12375"
     inkscape:path-effect="#path-effect12377"
     inkscape:original-d="m 0.02954619,22.575779 c 2.29999001,7.49346 4.59875001,14.98569 6.89620001,22.47664 4.1255598,5.314017 8.2496598,10.626567 12.3726298,15.937987 5.74815,10e-4 11.4949,10e-4 17.24046,0 5.20731,-5.03906 10.41315,-10.07916 15.61787,-15.120637 3.17894,-2.11023 6.35657,-4.22164 9.53297,-6.33434 -0.60724,-6.06076 -1.21575,-12.12251 -1.82548,-18.18564 -5.20481,-1.63344 -10.41065,-3.26806 -15.61782,-4.90397 -2.56799,2.72572 -5.1371,5.45011 -7.70754,8.17331 1.01541,3.66796 2.02954,7.33458 3.04245,10.99997 -4.12302,-1.41779 -8.24716,-2.83672 -12.37259,-4.25699 -1.08052,4.56478 -2.16226,9.12814 -3.24528,13.69031 -4.12302,-4.63038 -8.24712,-9.26185 -12.37258,-13.89465 0.20415,-2.65508 0.40689,-5.31141 0.60851,-7.96897 3.04372,-0.33914 6.08612,-0.67985 9.12729,-1.02165 -0.67484,-3.06382 -1.35096,-6.12877 -2.02826,-9.19501 -3.10889,-1.83778 -6.2189,-3.6767397 -9.3301898,-5.5169897 -2.56793,1.84029 -5.13705,3.6792597 -7.70749,5.5169897 -0.74251,3.20256 -1.48619001,6.40369 -2.23115001,9.60364 z" /><path
     style="opacity:1;fill:none;fill-opacity:1;stroke:#1d2e49;stroke-width:2;stroke-linecap:round;stroke-dasharray:none;stroke-opacity:1;stop-color:#000000"
     d="m 21.941516,8.4670273 c 0.711943,-2.3996737 2.319249,-4.5223384 4.435971,-5.8582976 2.116721,-1.3359592 4.724422,-1.87357751 7.196939,-1.4837614 0.588867,0.092841 1.170468,0.2364721 1.72967,0.443055 1.703539,0.6293291 3.134507,1.8126026 4.544728,2.9568828 1.410221,1.1442802 2.878636,2.2938695 4.612372,2.8344822 1.413956,0.4408993 2.960524,0.4461046 4.377417,0.014733 1.416892,-0.4313715 2.698179,-1.2975145 3.626563,-2.4515371"
     id="path14569"
     inkscape:original-d="m 21.941516,8.4670273 c 13.36251,-6.899073 7.75534,-4.894638 11.63291,-7.342059 3.87756,-2.447422 1.15319,0.295438 1.72967,0.443055 0.57648,0.147616 6.10481,3.860979 9.1571,5.791365 3.05229,1.930387 5.33606,-1.624467 8.00398,-2.436804"
     inkscape:path-effect="#path-effect14571" /><path
     style="opacity:1;fill:none;fill-opacity:1;stroke:#1d2e49;stroke-width:2;stroke-linecap:round;stroke-dasharray:none;stroke-opacity:1;stop-color:#000000"
     d="m 52.465176,4.9225723 c -0.397276,2.2320988 -1.62545,4.3064205 -3.39151,5.7280837 -2.426416,1.953244 -5.848837,2.594817 -8.81796,1.653029"
     id="path14577"
     inkscape:original-d="m 52.465176,4.9225723 c -1.13043,1.90943 -2.26094,3.818792 -3.39151,5.7280837 -1.13058,1.909293 -5.87857,1.102088 -8.81796,1.653029"
     inkscape:path-effect="#path-effect14579" /><path
     style="opacity:1;fill:none;fill-opacity:1;stroke:#1d2e49;stroke-width:2;stroke-linecap:round;stroke-dasharray:none;stroke-opacity:1;stop-color:#000000"
     d="M 40.255706,12.303685 C 38.174694,11.923114 36.198897,10.98215 34.591876,9.6063123 33.388614,8.5761492 32.38034,7.3026042 31.030786,6.4732783 29.570425,5.5758593 27.758217,5.2693553 26.083959,5.6366071 24.409701,6.0038588 22.892169,7.0407478 21.941516,8.4670273"
     id="path14585"
     inkscape:original-d="m 40.255706,12.303685 c -1.88787,-0.899056 -3.77581,-1.79818 -5.66383,-2.6973727 -1.88801,-0.899194 -2.37399,-2.088621 -3.56109,-3.133034 -1.18711,-1.044414 -6.05944,1.329234 -9.08927,1.993749"
     inkscape:path-effect="#path-effect14587" /></svg>
