<svg id="visual" viewBox="0 0 600 900" width="600" height="900" xmlns="http://www.w3.org/2000/svg" xmlns:xlink="http://www.w3.org/1999/xlink" version="1.1"><g stroke-width="1" stroke-linejoin="bevel"><path d="M294 409L200 392L192 474Z" fill="#5f6e8a" stroke="#5f6e8a"></path><path d="M192 474L323 513L294 409Z" fill="#576582" stroke="#576582"></path><path d="M200 392L108 413L192 474Z" fill="#465571" stroke="#465571"></path><path d="M416 278L284 292L294 409Z" fill="#707f9b" stroke="#707f9b"></path><path d="M294 409L284 292L200 392Z" fill="#5f6e8a" stroke="#5f6e8a"></path><path d="M200 392L101 310L108 413Z" fill="#707f9b" stroke="#707f9b"></path><path d="M108 413L97 496L192 474Z" fill="#4e5d79" stroke="#4e5d79"></path><path d="M192 474L297 612L323 513Z" fill="#2d3d59" stroke="#2d3d59"></path><path d="M284 292L188 278L200 392Z" fill="#4e5d79" stroke="#4e5d79"></path><path d="M323 513L400 502L294 409Z" fill="#4e5d79" stroke="#4e5d79"></path><path d="M97 496L130 576L192 474Z" fill="#364561" stroke="#364561"></path><path d="M323 513L409 590L400 502Z" fill="#677692" stroke="#677692"></path><path d="M203 627L297 612L192 474Z" fill="#4e5d79" stroke="#4e5d79"></path><path d="M188 278L101 310L200 392Z" fill="#253551" stroke="#253551"></path><path d="M108 413L0 513L97 496Z" fill="#707f9b" stroke="#707f9b"></path><path d="M400 502L429 413L294 409Z" fill="#5f6e8a" stroke="#5f6e8a"></path><path d="M130 576L203 627L192 474Z" fill="#3e4d69" stroke="#3e4d69"></path><path d="M284 292L191 222L188 278Z" fill="#2d3d59" stroke="#2d3d59"></path><path d="M188 278L81 224L101 310Z" fill="#253551" stroke="#253551"></path><path d="M297 612L409 590L323 513Z" fill="#5f6e8a" stroke="#5f6e8a"></path><path d="M400 502L480 500L429 413Z" fill="#5f6e8a" stroke="#5f6e8a"></path><path d="M429 413L416 278L294 409Z" fill="#576582" stroke="#576582"></path><path d="M284 292L313 172L191 222Z" fill="#1d2e49" stroke="#1d2e49"></path><path d="M409 590L480 500L400 502Z" fill="#677692" stroke="#677692"></path><path d="M429 413L498 326L416 278Z" fill="#2d3d59" stroke="#2d3d59"></path><path d="M0 271L0 377L101 310Z" fill="#707f9b" stroke="#707f9b"></path><path d="M101 310L0 377L108 413Z" fill="#3e4d69" stroke="#3e4d69"></path><path d="M97 496L0 586L130 576Z" fill="#707f9b" stroke="#707f9b"></path><path d="M0 377L0 513L108 413Z" fill="#677692" stroke="#677692"></path><path d="M130 576L178 695L203 627Z" fill="#1d2e49" stroke="#1d2e49"></path><path d="M85 695L178 695L130 576Z" fill="#3e4d69" stroke="#3e4d69"></path><path d="M203 627L292 713L297 612Z" fill="#707f9b" stroke="#707f9b"></path><path d="M297 612L403 681L409 590Z" fill="#3e4d69" stroke="#3e4d69"></path><path d="M191 222L81 224L188 278Z" fill="#3e4d69" stroke="#3e4d69"></path><path d="M480 500L507 378L429 413Z" fill="#253551" stroke="#253551"></path><path d="M416 278L313 172L284 292Z" fill="#253551" stroke="#253551"></path><path d="M191 222L76 119L81 224Z" fill="#707f9b" stroke="#707f9b"></path><path d="M178 695L292 713L203 627Z" fill="#576582" stroke="#576582"></path><path d="M507 378L498 326L429 413Z" fill="#677692" stroke="#677692"></path><path d="M416 278L395 170L313 172Z" fill="#2d3d59" stroke="#2d3d59"></path><path d="M0 513L0 586L97 496Z" fill="#3e4d69" stroke="#3e4d69"></path><path d="M81 224L0 271L101 310Z" fill="#465571" stroke="#465571"></path><path d="M292 713L403 681L297 612Z" fill="#677692" stroke="#677692"></path><path d="M409 590L494 606L480 500Z" fill="#364561" stroke="#364561"></path><path d="M0 586L85 695L130 576Z" fill="#707f9b" stroke="#707f9b"></path><path d="M178 695L178 772L292 713Z" fill="#253551" stroke="#253551"></path><path d="M403 681L494 606L409 590Z" fill="#707f9b" stroke="#707f9b"></path><path d="M600 488L600 397L507 378Z" fill="#576582" stroke="#576582"></path><path d="M510 172L395 170L416 278Z" fill="#4e5d79" stroke="#4e5d79"></path><path d="M76 119L0 227L81 224Z" fill="#5f6e8a" stroke="#5f6e8a"></path><path d="M81 224L0 227L0 271Z" fill="#1d2e49" stroke="#1d2e49"></path><path d="M85 695L178 772L178 695Z" fill="#465571" stroke="#465571"></path><path d="M292 713L317 799L403 681Z" fill="#1d2e49" stroke="#1d2e49"></path><path d="M396 96L272 91L313 172Z" fill="#5f6e8a" stroke="#5f6e8a"></path><path d="M313 172L207 91L191 222Z" fill="#253551" stroke="#253551"></path><path d="M272 91L207 91L313 172Z" fill="#1d2e49" stroke="#1d2e49"></path><path d="M207 91L76 119L191 222Z" fill="#253551" stroke="#253551"></path><path d="M600 488L507 378L480 500Z" fill="#465571" stroke="#465571"></path><path d="M507 378L600 322L498 326Z" fill="#4e5d79" stroke="#4e5d79"></path><path d="M486 99L396 96L395 170Z" fill="#4e5d79" stroke="#4e5d79"></path><path d="M494 606L600 488L480 500Z" fill="#677692" stroke="#677692"></path><path d="M178 772L317 799L292 713Z" fill="#4e5d79" stroke="#4e5d79"></path><path d="M403 681L494 728L494 606Z" fill="#465571" stroke="#465571"></path><path d="M85 695L80 787L178 772Z" fill="#5f6e8a" stroke="#5f6e8a"></path><path d="M0 586L0 725L85 695Z" fill="#4e5d79" stroke="#4e5d79"></path><path d="M510 172L416 278L498 326Z" fill="#2d3d59" stroke="#2d3d59"></path><path d="M395 170L396 96L313 172Z" fill="#576582" stroke="#576582"></path><path d="M600 397L600 322L507 378Z" fill="#3e4d69" stroke="#3e4d69"></path><path d="M600 322L510 172L498 326Z" fill="#576582" stroke="#576582"></path><path d="M0 725L80 787L85 695Z" fill="#576582" stroke="#576582"></path><path d="M178 772L215 900L317 799Z" fill="#4e5d79" stroke="#4e5d79"></path><path d="M494 773L494 728L403 681Z" fill="#5f6e8a" stroke="#5f6e8a"></path><path d="M494 606L600 630L600 488Z" fill="#576582" stroke="#576582"></path><path d="M600 687L600 630L494 606Z" fill="#1d2e49" stroke="#1d2e49"></path><path d="M0 725L0 775L80 787Z" fill="#576582" stroke="#576582"></path><path d="M86 0L0 99L76 119Z" fill="#4e5d79" stroke="#4e5d79"></path><path d="M76 119L0 99L0 227Z" fill="#2d3d59" stroke="#2d3d59"></path><path d="M312 900L382 830L317 799Z" fill="#5f6e8a" stroke="#5f6e8a"></path><path d="M317 799L382 830L403 681Z" fill="#364561" stroke="#364561"></path><path d="M600 72L486 99L510 172Z" fill="#2d3d59" stroke="#2d3d59"></path><path d="M510 172L486 99L395 170Z" fill="#5f6e8a" stroke="#5f6e8a"></path><path d="M295 0L228 0L272 91Z" fill="#4e5d79" stroke="#4e5d79"></path><path d="M382 830L494 773L403 681Z" fill="#3e4d69" stroke="#3e4d69"></path><path d="M494 728L600 687L494 606Z" fill="#364561" stroke="#364561"></path><path d="M272 91L228 0L207 91Z" fill="#5f6e8a" stroke="#5f6e8a"></path><path d="M207 91L86 0L76 119Z" fill="#576582" stroke="#576582"></path><path d="M295 0L272 91L396 96Z" fill="#1d2e49" stroke="#1d2e49"></path><path d="M600 793L600 687L494 728Z" fill="#5f6e8a" stroke="#5f6e8a"></path><path d="M390 0L295 0L396 96Z" fill="#1d2e49" stroke="#1d2e49"></path><path d="M600 322L600 174L510 172Z" fill="#4e5d79" stroke="#4e5d79"></path><path d="M486 99L390 0L396 96Z" fill="#3e4d69" stroke="#3e4d69"></path><path d="M523 0L390 0L486 99Z" fill="#253551" stroke="#253551"></path><path d="M71 900L215 900L178 772Z" fill="#707f9b" stroke="#707f9b"></path><path d="M71 900L178 772L80 787Z" fill="#1d2e49" stroke="#1d2e49"></path><path d="M228 0L86 0L207 91Z" fill="#1d2e49" stroke="#1d2e49"></path><path d="M215 900L312 900L317 799Z" fill="#5f6e8a" stroke="#5f6e8a"></path><path d="M382 830L499 900L494 773Z" fill="#4e5d79" stroke="#4e5d79"></path><path d="M312 900L377 900L382 830Z" fill="#4e5d79" stroke="#4e5d79"></path><path d="M494 773L600 793L494 728Z" fill="#2d3d59" stroke="#2d3d59"></path><path d="M0 900L71 900L80 787Z" fill="#5f6e8a" stroke="#5f6e8a"></path><path d="M86 0L0 0L0 99Z" fill="#5f6e8a" stroke="#5f6e8a"></path><path d="M499 900L600 793L494 773Z" fill="#707f9b" stroke="#707f9b"></path><path d="M600 174L600 72L510 172Z" fill="#3e4d69" stroke="#3e4d69"></path><path d="M600 72L523 0L486 99Z" fill="#3e4d69" stroke="#3e4d69"></path><path d="M0 775L0 900L80 787Z" fill="#465571" stroke="#465571"></path><path d="M377 900L499 900L382 830Z" fill="#2d3d59" stroke="#2d3d59"></path><path d="M600 72L600 0L523 0Z" fill="#1d2e49" stroke="#1d2e49"></path><path d="M499 900L600 900L600 793Z" fill="#253551" stroke="#253551"></path></g></svg>