<svg id="visual" viewBox="0 0 2560 1717" width="2560" height="1717" xmlns="http://www.w3.org/2000/svg" xmlns:xlink="http://www.w3.org/1999/xlink" version="1.1"><path d="M0 173L427 207L853 138L1280 173L1707 138L2133 207L2560 190L2560 0L2133 0L1707 0L1280 0L853 0L427 0L0 0Z" fill="#041735"></path><path d="M0 739L427 568L853 447L1280 671L1707 671L2133 516L2560 705L2560 188L2133 205L1707 136L1280 171L853 136L427 205L0 171Z" fill="#173354"></path><path d="M0 997L427 911L853 808L1280 928L1707 963L2133 774L2560 945L2560 703L2133 514L1707 669L1280 669L853 445L427 566L0 737Z" fill="#2b5274"></path><path d="M0 1203L427 1100L853 1014L1280 1134L1707 1186L2133 1048L2560 1151L2560 943L2133 772L1707 961L1280 926L853 806L427 909L0 995Z" fill="#417394"></path><path d="M0 1598L427 1581L853 1529L1280 1529L1707 1546L2133 1581L2560 1563L2560 1149L2133 1046L1707 1184L1280 1132L853 1012L427 1098L0 1201Z" fill="#5a96b4"></path><path d="M0 1718L427 1718L853 1718L1280 1718L1707 1718L2133 1718L2560 1718L2560 1561L2133 1579L1707 1544L1280 1527L853 1527L427 1579L0 1596Z" fill="#75bad3"></path></svg>