<svg id="visual" viewBox="0 0 2560 1717" width="2560" height="1717" xmlns="http://www.w3.org/2000/svg" xmlns:xlink="http://www.w3.org/1999/xlink" version="1.1"><path d="M0 224L427 327L853 379L1280 156L1707 207L2133 310L2560 207L2560 0L2133 0L1707 0L1280 0L853 0L427 0L0 0Z" fill="#1d2e49"></path><path d="M0 482L427 533L853 568L1280 516L1707 327L2133 533L2560 327L2560 205L2133 308L1707 205L1280 154L853 377L427 325L0 222Z" fill="#14435e"></path><path d="M0 619L427 705L853 860L1280 636L1707 619L2133 705L2560 430L2560 325L2133 531L1707 325L1280 514L853 566L427 531L0 480Z" fill="#00596f"></path><path d="M0 1409L427 1392L853 1306L1280 1134L1707 1134L2133 1392L2560 1306L2560 428L2133 703L1707 617L1280 634L853 858L427 703L0 617Z" fill="#006f77"></path><path d="M0 1718L427 1718L853 1718L1280 1718L1707 1718L2133 1718L2560 1718L2560 1304L2133 1390L1707 1132L1280 1132L853 1304L427 1390L0 1407Z" fill="#038373"></path></svg>